<svg width="49" height="50" viewBox="0 0 49 50" fill="none" xmlns="http://www.w3.org/2000/svg">
<path d="M9.07076 40.6928C15.5628 47.1848 24.0008 49.1298 28.1488 49.5288C29.3678 49.6688 30.0478 48.9188 30.1408 48.1458C30.2348 47.3258 29.7188 46.4348 28.5478 46.2708C24.7978 45.7548 17.0398 44.0678 11.4148 38.3728C2.22676 29.1618 0.492758 15.2398 7.99276 7.73979C14.0868 1.66979 24.2348 2.44279 31.7118 6.47379L34.1488 4.10679C25.0548 -1.35421 12.8208 -1.79921 5.64876 5.39579C-2.88224 13.9508 -1.75724 29.8648 9.07076 40.6928ZM43.4308 7.48179L45.3048 5.60679C46.1948 4.71679 46.2428 3.40379 45.3288 2.55979L44.7188 1.99779C43.9228 1.24779 42.6798 1.27079 41.8128 2.09079L39.9618 3.98979L43.4308 7.48179ZM20.6728 30.1918L41.7188 9.16879L38.2268 5.70079L17.2038 26.7008L15.2588 31.1768C15.0708 31.6688 15.5628 32.1618 16.0788 31.9968L20.6728 30.1918ZM17.6028 33.6848C25.2658 41.3488 37.5938 44.3728 44.4848 37.5048C50.1098 31.8568 49.3828 21.8248 43.3598 13.2008L40.9698 15.5908C45.7498 22.6688 46.6878 30.6148 42.1408 35.1608C36.6108 40.6928 27.4688 38.0678 21.1878 32.1378L17.6028 33.6848Z" fill="#9CAFAA"/>
</svg>
