<svg width="30" height="30" viewBox="0 0 30 30" fill="none" xmlns="http://www.w3.org/2000/svg">
<g clip-path="url(#clip0_19_685)">
<mask id="mask0_19_685" style="mask-type:luminance" maskUnits="userSpaceOnUse" x="5" y="5" width="20" height="20">
<path d="M5.83334 5.83325H24.1667V24.1666H5.83334V5.83325Z" fill="white"/>
</mask>
<g mask="url(#mask0_19_685)">
<path d="M22.6389 11.1804H17.2917V9.65259H22.6389V11.1804ZM23.9574 18.8193C23.6197 19.81 22.4074 21.1109 20.0608 21.1109C17.7126 21.1109 15.8105 19.7902 15.8105 16.7759C15.8105 13.789 17.5865 12.2536 19.9859 12.2536C22.3402 12.2536 23.7779 13.6149 24.0918 15.6346C24.1514 16.0211 24.1751 16.5421 24.1644 17.2693H18.0326C18.132 19.7222 20.6933 19.7993 21.5374 18.8193H23.9574ZM18.0861 15.7637H21.8788C21.7986 14.582 21.0111 14.0686 19.9867 14.0686C18.8668 14.0686 18.2473 14.6553 18.0861 15.7637ZM10.7726 21.1018H5.83334V9.66863H11.1447C15.3277 9.7305 15.4072 13.8272 13.2224 14.944C15.8663 15.9065 15.9549 21.1018 10.7726 21.1018ZM8.12501 14.2359H10.8628C12.7786 14.2359 13.0826 11.9443 10.6245 11.9443H8.12501V14.2359ZM10.7154 16.5276H8.12501V18.8315H10.6772C13.0108 18.8315 12.868 16.5276 10.7154 16.5276Z" fill="#9CAFAA"/>
</g>
</g>
<circle cx="15" cy="15" r="14.5" stroke="#9CAFAA"/>
<defs>
<clipPath id="clip0_19_685">
<rect width="18.3333" height="18.3333" fill="white" transform="translate(5.83334 5.83325)"/>
</clipPath>
</defs>
</svg>
