<svg width="30" height="30" viewBox="0 0 30 30" fill="none" xmlns="http://www.w3.org/2000/svg">
<circle cx="15" cy="15" r="14.5" stroke="black"/>
<path d="M22.8056 10.5278H17.4583V9H22.8056V10.5278ZM24.124 18.1667C23.7864 19.1574 22.5741 20.4583 20.2274 20.4583C17.8792 20.4583 15.9772 19.1376 15.9772 16.1233C15.9772 13.1365 17.7532 11.601 20.1526 11.601C22.5069 11.601 23.9445 12.9623 24.2585 14.982C24.3181 15.3685 24.3417 15.8895 24.331 16.6167H18.1993C18.2986 19.0696 20.8599 19.1467 21.704 18.1667H24.124ZM18.2528 15.1111H22.0455C21.9653 13.9294 21.1777 13.416 20.1533 13.416C19.0335 13.416 18.414 14.0027 18.2528 15.1111ZM10.9393 20.4492H6V9.01604H11.3113C15.4944 9.07792 15.5738 13.1747 13.3891 14.2915C16.0329 15.254 16.1215 20.4492 10.9393 20.4492ZM8.29167 13.5833H11.0294C12.9453 13.5833 13.2493 11.2917 10.7911 11.2917H8.29167V13.5833ZM10.882 15.875H8.29167V18.1789H10.8438C13.1775 18.1789 13.0347 15.875 10.882 15.875Z" fill="black"/>
</svg>
