<svg width="63" height="57" viewBox="0 0 63 57" fill="none" xmlns="http://www.w3.org/2000/svg">
<path d="M6.29989 -1.43051e-06C4.62905 -1.43051e-06 3.02665 0.66726 1.84519 1.85499C0.663737 3.04272 -2.65205e-07 4.65363 -2.65205e-07 6.33333V21.7993C-2.65205e-07 23.479 0.663737 25.0899 1.84519 26.2777C3.02665 27.4654 4.62905 28.1327 6.29989 28.1327H15.0441C15.0441 30.3578 14.9139 32.5829 14.6535 34.808C14.2629 37.164 13.612 39.2582 12.7006 41.0907C11.7892 42.9231 10.6153 44.365 9.17893 45.4163C7.75096 46.5943 5.92819 47.1833 3.71063 47.1833V57C7.35616 57 10.5481 56.2147 13.2865 54.644C16.0059 53.0931 18.3423 50.9456 20.1218 48.3613C21.9135 45.5167 23.2327 42.398 24.0278 39.1273C24.8317 35.519 25.2249 31.8304 25.1995 28.1327V6.33333C25.1995 4.65363 24.5358 3.04272 23.3543 1.85499C22.1729 0.66726 20.5705 -1.43051e-06 18.8997 -1.43051e-06H6.29989ZM44.0992 -1.43051e-06C42.4284 -1.43051e-06 40.826 0.66726 39.6445 1.85499C38.463 3.04272 37.7993 4.65363 37.7993 6.33333V21.7993C37.7993 23.479 38.463 25.0899 39.6445 26.2777C40.826 27.4654 42.4284 28.1327 44.0992 28.1327H52.8434C52.8434 30.3578 52.7132 32.5829 52.4528 34.808C52.0581 37.164 51.4071 39.2582 50.4999 41.0907C49.5885 42.9231 48.4146 44.365 46.9782 45.4163C45.5503 46.5943 43.7275 47.1833 41.5099 47.1833V57C45.1555 57 48.3474 56.2147 51.0858 54.644C53.8052 53.0931 56.1416 50.9456 57.9211 48.3613C59.7128 45.5167 61.032 42.398 61.8271 39.1273C62.631 35.519 63.0242 31.8304 62.9989 28.1327V6.33333C62.9989 4.65363 62.3351 3.04272 61.1537 1.85499C59.9722 0.66726 58.3698 -1.43051e-06 56.699 -1.43051e-06H44.0992Z" fill="black"/>
</svg>
