<svg width="30" height="30" viewBox="0 0 30 30" fill="none" xmlns="http://www.w3.org/2000/svg">
<circle cx="15" cy="15" r="14.5" stroke="black"/>
<path d="M23.6667 10.708V20.367C23.6667 20.9948 23.1583 21.5031 22.5306 21.5031H19.8785V15.0643L15.3333 18.474L10.7882 15.0643V21.5038H8.13611C7.98686 21.5038 7.83906 21.4744 7.70118 21.4173C7.5633 21.3602 7.43802 21.2764 7.33251 21.1708C7.22701 21.0653 7.14334 20.9399 7.08628 20.802C7.02923 20.6641 6.99991 20.5163 7 20.367V10.708C7 9.30315 8.60347 8.50106 9.72708 9.34412L10.7882 10.1406L15.3333 13.549L19.8785 10.1393L20.9396 9.34412C22.0625 8.50176 23.6667 9.30315 23.6667 10.708Z" fill="black"/>
</svg>
