<svg width="30" height="30" viewBox="0 0 30 30" fill="none" xmlns="http://www.w3.org/2000/svg">
<g clip-path="url(#clip0_19_684)">
<path d="M23.3333 10.4563V20.1153C23.3333 20.7431 22.825 21.2514 22.1972 21.2514H19.5451V14.8125L15 18.2223L10.4549 14.8125V21.2521H7.80277C7.65351 21.2521 7.50572 21.2227 7.36784 21.1656C7.22995 21.1084 7.10468 21.0247 6.99917 20.9191C6.89366 20.8136 6.80999 20.6882 6.75294 20.5503C6.69588 20.4124 6.66657 20.2646 6.66666 20.1153V10.4563C6.66666 9.05144 8.27013 8.24935 9.39374 9.09241L10.4549 9.88894L15 13.2973L19.5451 9.88755L20.6062 9.09241C21.7292 8.25005 23.3333 9.05144 23.3333 10.4563Z" fill="#9CAFAA"/>
</g>
<circle cx="15" cy="15" r="14.5" stroke="#9CAFAA"/>
<defs>
<clipPath id="clip0_19_684">
<rect width="16.6667" height="16.6667" fill="white" transform="translate(6.66666 6.66675)"/>
</clipPath>
</defs>
</svg>
