<svg width="150" height="112" viewBox="0 0 150 112" fill="none" xmlns="http://www.w3.org/2000/svg">
<g clip-path="url(#clip0_15_461)">
<path d="M129.071 64.4665C123.853 64.4933 119.317 65.7446 115.519 67.5943C114.125 64.8468 112.732 62.3992 112.487 60.6037C112.213 58.5095 111.885 57.2308 112.213 54.7283C112.541 52.2258 114.016 48.6623 113.989 48.3904C113.962 48.1186 113.661 46.8399 110.655 46.8131C107.65 46.7857 105.055 47.3842 104.754 48.1728C104.453 48.9615 103.88 50.757 103.497 52.6062C102.978 55.3268 97.4865 65.037 94.3447 70.1237C93.3334 68.1386 92.4592 66.3973 92.2676 65.0102C91.9945 62.916 91.6664 61.6373 91.9945 59.1348C92.3227 56.6323 93.7981 53.0693 93.7705 52.7969C93.743 52.5251 93.4424 51.2464 90.4371 51.2196C87.4313 51.1922 84.8356 51.7907 84.5356 52.5793C84.235 53.3686 83.9068 55.2178 83.2787 57.0133C82.65 58.8088 75.3551 75.0208 73.4426 79.2091C72.6697 80.9043 71.859 82.5822 71.0109 84.2415C71.0109 84.2415 70.9834 84.3232 70.9014 84.4591C70.635 84.9794 70.3619 85.4962 70.0822 86.0096V86.0364C69.6721 86.7714 69.235 87.451 69.0164 87.451C68.8524 87.451 68.5518 85.4928 69.0709 82.8269C70.1637 77.1966 72.7594 68.4378 72.7324 68.1386C72.7324 67.9753 73.224 66.4522 71.0385 65.6629C68.9068 64.8743 68.1422 66.1798 67.9506 66.1798C67.7596 66.1798 67.6225 66.6423 67.6225 66.6423C67.6225 66.6423 70.0002 56.7957 63.0873 56.7957C58.7707 56.7957 52.8141 61.5014 49.8633 65.7446C46.5089 67.5619 43.1573 69.3844 39.8086 71.2122C38.1973 72.1099 36.5303 73.0077 34.9729 73.8506C34.8633 73.7421 34.7543 73.6056 34.6447 73.4971C26.284 64.6024 10.8199 58.3188 11.4756 46.3779C11.7217 42.0257 13.224 30.6011 41.175 16.7288C64.1801 5.44017 82.4865 8.568 85.6559 15.5044C90.191 25.4059 75.8473 43.7938 52.0764 46.459C43.0055 47.4658 38.2512 43.9839 37.0494 42.6784C35.7926 41.3181 35.601 41.2364 35.1363 41.5088C34.3717 41.9172 34.8633 43.141 35.1363 43.848C35.8471 45.6972 38.7703 48.9615 43.7156 50.5668C48.0873 51.9808 58.7156 52.7701 71.5846 47.8193C85.9834 42.2701 97.2404 26.8473 93.9346 13.9271C90.6281 0.816086 68.7703 -3.50875 48.0873 3.808C35.7926 8.16084 22.459 15.015 12.8689 23.9371C1.47539 34.545 -0.328125 43.7663 0.409571 47.6292C3.06035 61.3381 22.0494 70.2602 29.6449 76.8699C29.2623 77.0875 28.9066 77.2783 28.6066 77.4416C24.8086 79.3182 10.3277 86.8525 6.72129 94.8226C2.62324 103.853 7.37754 110.328 10.5193 111.197C20.2734 113.891 30.3006 109.049 35.683 101.051C41.0654 93.0545 40.4098 82.6636 37.9236 77.9036C37.8961 77.8493 37.8691 77.7945 37.8141 77.7403C38.7979 77.1692 39.8086 76.5707 40.7924 75.9996C42.6005 74.9355 44.4316 73.9105 46.2844 72.9254C45.3551 75.4553 44.6719 78.4747 44.3443 82.8269C43.9342 87.941 46.0377 94.5776 48.7975 97.1886C50.0273 98.3319 51.4752 98.3588 52.4045 98.3588C55.6283 98.3588 57.0768 95.6929 58.6887 92.5377C60.6557 88.6754 62.4316 84.1873 62.4316 84.1873C62.4316 84.1873 60.2186 96.3188 66.2297 96.3188C68.4152 96.3188 70.6283 93.4897 71.6121 92.0483V92.0751C71.6121 92.0751 71.6666 91.9934 71.7762 91.8033C71.9947 91.4498 72.1313 91.2316 72.1313 91.2316V91.1779C73.0055 89.6543 74.9731 86.1998 77.8963 80.4603C81.6668 73.0619 85.3008 63.8138 85.3008 63.8138C85.3008 63.8138 85.6289 66.0713 86.7486 69.825C87.4049 72.0283 88.7701 74.4491 89.8635 76.7883C88.9893 78.0127 88.4426 78.6923 88.4426 78.6923L88.4701 78.7197C87.7594 79.6443 86.9947 80.6505 86.1475 81.6305C83.1691 85.1661 79.6178 89.2197 79.1256 90.3887C78.5514 91.7758 78.6885 92.7827 79.7818 93.5988C80.574 94.1973 81.9943 94.2783 83.4428 94.1973C86.1205 94.0065 88.0055 93.3538 88.9342 92.946C90.3826 92.4292 92.0766 91.6399 93.661 90.4703C96.5848 88.3213 98.3602 85.2478 98.1967 81.1953C98.1147 78.9647 97.377 76.734 96.4752 74.6393C96.7488 74.2589 96.9943 73.878 97.268 73.4971C101.885 66.7783 105.465 59.4067 105.465 59.4067C105.465 59.4067 105.793 61.6642 106.913 65.4185C107.459 67.3225 108.58 69.3898 109.563 71.4023C105.219 74.9117 102.541 78.9915 101.585 81.6573C99.8637 86.6081 101.202 88.8382 103.743 89.355C104.89 89.6 106.53 89.0558 107.732 88.5389C109.262 88.0495 111.066 87.2066 112.787 85.9548C115.711 83.8063 118.525 80.8138 118.361 76.7614C118.279 74.9117 117.787 73.0888 117.104 71.3207C120.792 69.7982 125.547 68.9547 131.612 69.6617C144.618 71.1848 147.186 79.2633 146.694 82.6642C146.202 86.0638 143.47 87.9136 142.569 88.4847C141.666 89.0563 141.366 89.2465 141.448 89.6543C141.557 90.2528 141.994 90.2259 142.76 90.1168C143.825 89.9267 149.59 87.3693 149.836 81.1131C150.246 73.1162 142.596 64.3848 129.071 64.4665ZM28.7432 98.1412C24.426 102.82 18.4154 104.588 15.8197 103.092C13.033 101.487 14.1258 94.5776 19.4262 89.6274C22.65 86.6081 26.8031 83.8058 29.5629 82.0925C30.191 81.7116 31.1203 81.1679 32.2406 80.4878C32.4316 80.3787 32.5412 80.3244 32.5412 80.3244L33.1969 79.9161C35.1363 86.9884 33.2789 93.2178 28.7432 98.1412ZM60.1641 76.8699C58.6611 80.5152 55.5193 89.845 53.6068 89.3282C51.9674 88.893 50.9561 81.8207 53.2787 74.83C54.4535 71.3207 56.9397 67.1318 58.3881 65.5002C60.7377 62.8886 63.3334 62.0177 63.9615 63.0793C64.7543 64.4665 61.0928 74.585 60.1641 76.8699ZM86.093 89.2191C85.4643 89.5458 84.8637 89.7633 84.5901 89.6C84.399 89.4909 84.8637 89.0558 84.8637 89.0558C84.8637 89.0558 88.1151 85.5744 89.3988 83.9965C90.1371 83.0719 91.0107 81.984 91.94 80.7596V81.1131C91.94 85.2752 87.8959 88.0769 86.0924 89.2191M106.092 84.6767C105.628 84.35 105.71 83.2621 107.267 79.8618C107.868 78.5289 109.288 76.2988 111.721 74.1498C111.994 75.0202 112.185 75.8637 112.158 76.6523C112.13 81.9023 108.36 83.8606 106.092 84.6767Z" fill="#CD6799"/>
</g>
<defs>
<clipPath id="clip0_15_461">
<rect width="150" height="112" fill="white"/>
</clipPath>
</defs>
</svg>
