<svg width="30" height="30" viewBox="0 0 30 30" fill="none" xmlns="http://www.w3.org/2000/svg">
<circle cx="15" cy="15" r="14.5" stroke="black"/>
<path d="M10.4722 8.73698C10.472 9.19742 10.2889 9.63892 9.96311 9.96434C9.63737 10.2898 9.19569 10.4725 8.73524 10.4722C8.2748 10.472 7.8333 10.2889 7.50788 9.96311C7.18246 9.63737 6.99977 9.19569 7 8.73524C7.00023 8.2748 7.18336 7.8333 7.50911 7.50788C7.83486 7.18246 8.27653 6.99977 8.73698 7C9.19742 7.00023 9.63892 7.18336 9.96434 7.50911C10.2898 7.83486 10.4725 8.27653 10.4722 8.73698ZM10.5243 11.7578H7.05208V22.6259H10.5243V11.7578ZM16.0104 11.7578H12.5556V22.6259H15.9757V16.9227C15.9757 13.7457 20.1163 13.4505 20.1163 16.9227V22.6259H23.5451V15.7422C23.5451 10.3863 17.4167 10.5859 15.9757 13.2161L16.0104 11.7578Z" fill="black"/>
</svg>
